<svg xmlns="http://www.w3.org/2000/svg" viewBox="0 0 100 100">
  <rect width="100" height="100" rx="22" fill="#093b31"/>
  <!-- the open door -->
  <path d="M28 82 V46 a22 22 0 0 1 44 0 v36 Z" fill="#fbefe2"/>
  <!-- the heart inside -->
  <path d="M50 74 37.4 61.4a8.9 8.9 0 0 1 0-12.4 8.6 8.6 0 0 1 12.3 0l.3.3.3-.3a8.6 8.6 0 0 1 12.3 0 8.9 8.9 0 0 1 0 12.4Z" fill="#e96d51"/>
  <!-- the register line -->
  <path d="M22 90 c 8 -7 12 7 20 0 s 12 7 20 0 s 12 7 16 2" fill="none" stroke="#f7c948" stroke-width="5" stroke-linecap="round"/>
</svg>
